PathFileType	4	(X/Y/Z)	C:/Users/opensim2020/Desktop/walking_exp_matlab/subject02_walking13_straight_03.trc	
DataRate	CameraRate	NumFrames	NumMarkers	Units	OrigDataRate	OrigDataStartFrame	OrigNumFrames	
100.00	100.00	7	41	mm	100.00	1312	129	
Frame#	Time	LFHD			RFHD			LBHD			RBHD			C7			T10			CLAV			STRN			RBAK			LSHO			LUPA			LELB			LFRM			LWRA			LWRB			LFIN			RSHO			RUPA			RELB			RFRM			RWRA			RWRB			RFIN			LASI			RASI			LPSI			RPSI			LTHI			LKNE			LTIB			LANK			LHEE			LTOE			RTHI			RKNE			RTIB			RANK			RHEE			RTOE			*39			*40			
		X1	Y1	Z1	X2	Y2	Z2	X3	Y3	Z3	X4	Y4	Z4	X5	Y5	Z5	X6	Y6	Z6	X7	Y7	Z7	X8	Y8	Z8	X9	Y9	Z9	X10	Y10	Z10	X11	Y11	Z11	X12	Y12	Z12	X13	Y13	Z13	X14	Y14	Z14	X15	Y15	Z15	X16	Y16	Z16	X17	Y17	Z17	X18	Y18	Z18	X19	Y19	Z19	X20	Y20	Z20	X21	Y21	Z21	X22	Y22	Z22	X23	Y23	Z23	X24	Y24	Z24	X25	Y25	Z25	X26	Y26	Z26	X27	Y27	Z27	X28	Y28	Z28	X29	Y29	Z29	X30	Y30	Z30	X31	Y31	Z31	X32	Y32	Z32	X33	Y33	Z33	X34	Y34	Z34	X35	Y35	Z35	X36	Y36	Z36	X37	Y37	Z37	X38	Y38	Z38	X39	Y39	Z39	X40	Y40	Z40	X41	Y41	Z41	

1	0.000	-1003.76697	-631.03314	1736.70032	-864.52502	-654.84906	1710.14368	-1037.53479	-761.96716	1669.00037	-901.18127	-796.79425	1641.18311	-962.08350	-834.35437	1525.89600	-960.13245	-897.09204	1253.01514	-987.17059	-699.07959	1452.82629	-989.39423	-654.05194	1278.30664	-898.43585	-893.29114	1351.79736	-1145.28711	-786.83917	1504.43103	-1245.93188	-821.51685	1319.36011	-1284.36108	-826.87616	1184.14026	-1320.97852	-794.20190	1056.95776	-1314.35413	-709.88037	944.43091	-1341.78943	-759.45526	939.14355	-1351.74658	-726.33264	880.35895	-784.58307	-740.97937	1482.40601	-703.55927	-770.77661	1289.73889	-695.36658	-768.68909	1143.57886	-680.51233	-750.58771	1025.03809	-706.19269	-717.63556	894.57520	-668.66595	-761.21722	895.27734	-669.84485	-729.27936	829.74811	-1125.62427	-707.41614	982.44458	-869.32874	-675.84723	969.94995	-1014.45441	-898.24109	1036.70544	-900.22021	-890.83667	1036.78845	-1195.93359	-752.81006	676.36298	-1187.21790	-755.91632	491.55054	-1161.90491	-898.44019	378.84540	-1126.24365	-1022.69818	197.01260	-1063.64856	-1046.68933	188.33058	-1179.92676	-946.88550	70.93673	-812.98779	-718.34210	660.24811	-875.80145	-705.92725	456.75687	-880.82074	-750.59241	272.07010	-932.01239	-784.94708	86.57780	-989.05200	-825.91022	34.10209	-929.60889	-636.94476	38.76607	-926.44873	-743.18518	1801.44592	-3357.38208	2846.00635	1034.25012 
2	0.010	-1008.43066	-622.52905	1738.83093	-866.32983	-643.49182	1711.88489	-1038.96521	-750.73993	1670.91357	-902.82465	-786.34070	1643.11621	-963.80719	-823.42139	1527.66882	-960.99829	-885.73645	1254.71582	-988.59564	-687.91003	1454.64355	-989.98700	-642.67780	1280.21326	-899.72766	-881.49255	1353.19812	-1146.96899	-776.00970	1505.62659	-1246.08020	-812.48792	1319.71045	-1281.97290	-819.87250	1183.92957	-1316.93433	-790.17798	1055.45227	-1308.40637	-708.71460	940.96381	-1336.07813	-758.54480	936.59802	-1344.93945	-727.11688	876.74249	-786.29633	-730.36786	1485.13855	-704.67004	-757.85608	1292.52991	-696.26910	-753.44867	1145.91724	-681.91644	-732.68842	1027.66370	-708.41235	-696.82422	897.98981	-670.72766	-740.24420	897.49091	-672.33374	-706.65912	832.87317	-1125.77393	-693.42712	986.17743	-869.29846	-665.60016	971.16974	-1015.95892	-886.35046	1038.48157	-901.45831	-879.71924	1038.41516	-1197.55847	-734.63489	679.69385	-1188.64111	-732.41003	494.04871	-1164.62805	-871.21967	376.58838	-1129.50134	-989.29407	190.19347	-1067.16199	-1013.79968	180.16257	-1183.79321	-907.08234	68.66881	-813.90198	-713.71710	660.52478	-876.45496	-703.82208	456.64606	-881.23236	-750.28107	272.34921	-932.39948	-785.29382	86.63683	-989.13312	-826.36542	34.49742	-929.41895	-637.05200	38.66623	-928.13000	-731.90826	1803.29431	-3357.35229	2846.04077	1034.26270 
3	0.020	-1007.37238	-608.74847	1739.77502	-868.02991	-632.48547	1713.21387	-1040.77368	-739.71838	1672.67590	-904.83148	-774.76294	1645.04956	-965.64453	-812.25336	1529.17249	-961.80072	-874.41705	1256.21155	-990.05701	-676.67480	1456.30090	-990.45831	-631.26703	1281.91138	-900.85455	-870.46869	1355.08057	-1148.72571	-765.06781	1506.52844	-1245.96997	-803.50537	1319.91907	-1279.66980	-812.97510	1183.67078	-1312.63794	-786.58081	1054.05310	-1302.80945	-707.74530	938.12939	-1329.97644	-758.14008	933.94440	-1338.25977	-728.38513	873.30072	-787.85175	-719.75000	1487.61841	-705.81854	-744.99402	1294.67761	-697.11951	-737.98560	1147.99280	-683.64771	-714.61493	1030.03748	-710.62036	-675.78455	901.42712	-672.58807	-719.09662	899.76752	-674.63751	-684.21326	836.18042	-1124.79150	-680.03845	989.15924	-869.15076	-655.26575	972.10382	-1017.61682	-874.40106	1040.20166	-902.87781	-868.54315	1039.80505	-1199.24561	-716.68982	682.95087	-1190.37866	-709.51251	496.85214	-1167.35278	-844.14905	373.77606	-1132.86389	-955.02765	182.46498	-1070.63831	-979.96094	170.99599	-1187.25720	-866.61206	65.81522	-815.16846	-709.62927	660.67328	-877.52368	-701.47601	456.34546	-881.63489	-749.79779	272.63074	-932.84039	-784.94061	86.68277	-989.37622	-826.33307	34.47977	-929.46344	-637.00055	38.61701	-929.87537	-720.53473	1804.94165	-3357.39600	2846.10376	1034.23621 
4	0.030	-1009.70746	-597.95709	1741.08752	-869.66864	-621.28284	1714.42212	-1043.02087	-728.76630	1674.28223	-906.64069	-763.68561	1646.48328	-967.58051	-800.97876	1530.42175	-962.61407	-863.06580	1257.44690	-991.51599	-665.38226	1457.74524	-990.93506	-619.78290	1283.41504	-902.02893	-860.06311	1356.91992	-1150.45630	-753.89636	1507.12610	-1245.87378	-794.40692	1319.95374	-1277.35107	-806.05597	1183.19348	-1308.59985	-783.11017	1052.68005	-1297.17871	-707.33936	934.86414	-1324.43359	-757.83459	931.72620	-1331.81421	-729.93341	869.99091	-789.61780	-709.13129	1489.93518	-707.13953	-732.87781	1296.87488	-697.82550	-722.30072	1149.92236	-684.91644	-696.39453	1032.53650	-712.82965	-654.44507	904.96466	-674.68860	-697.33954	902.05756	-677.27795	-660.84406	839.28619	-1123.47058	-666.34833	991.75311	-868.93250	-645.14246	972.57819	-1019.54913	-862.50232	1041.71875	-904.48456	-857.44830	1040.93713	-1201.00732	-698.92749	686.03870	-1191.87793	-687.12714	499.32278	-1170.25452	-817.20288	370.41928	-1136.36194	-919.98907	174.17482	-1074.46692	-945.04517	161.09543	-1190.57898	-825.25800	62.81155	-816.67786	-705.54401	660.90540	-877.99683	-699.29095	456.20554	-882.10760	-748.94250	272.79855	-933.17926	-784.80841	86.81760	-989.54382	-826.09344	34.35318	-929.51727	-636.99152	38.49915	-931.55029	-709.17426	1806.31189	-3357.27808	2845.93506	1034.23633 
5	0.040	-1010.60699	-586.21832	1741.98462	-871.49683	-610.05249	1715.28955	-1044.76794	-717.55609	1675.44873	-908.55499	-752.62872	1647.84033	-969.46997	-789.67841	1531.44373	-963.54205	-851.62482	1258.40369	-992.92688	-654.08325	1458.86609	-991.28003	-608.31281	1284.64722	-903.03833	-848.10095	1358.04468	-1152.18970	-742.55231	1507.32361	-1245.47351	-785.23743	1319.75208	-1275.26843	-799.16394	1182.94214	-1304.66675	-779.71069	1051.31738	-1291.34558	-707.72064	930.85437	-1318.82397	-757.96295	929.60455	-1325.41870	-731.82404	866.93439	-791.19055	-698.14636	1491.62183	-708.26898	-719.68707	1298.70435	-698.71393	-707.10736	1151.57666	-686.28906	-677.91315	1034.87134	-714.99078	-633.01904	908.52716	-676.72253	-675.65863	904.32465	-679.74280	-637.35126	842.59363	-1121.96167	-652.49792	993.82861	-868.54425	-635.00586	972.78625	-1021.59747	-850.64105	1043.09961	-906.32452	-846.31006	1041.79529	-1202.91162	-681.35846	688.96082	-1193.31409	-665.39844	501.57681	-1173.15771	-790.43024	366.38086	-1140.04578	-884.12708	165.25169	-1078.37720	-909.25018	150.63408	-1193.94348	-783.03827	59.96851	-818.04755	-700.37610	661.01740	-878.80505	-696.83606	456.06378	-882.55511	-747.76520	272.96497	-933.41949	-784.65546	86.94740	-989.93555	-825.40637	33.95890	-929.57001	-636.87305	38.31870	-933.19250	-697.76154	1807.24805	-3357.33154	2845.95435	1034.43066 
6	0.050	-1012.86023	-575.12122	1742.66443	-873.21350	-598.78442	1715.88135	-1045.85266	-706.11584	1675.97791	-910.22113	-741.38831	1648.49365	-971.34406	-778.34131	1532.23694	-964.62817	-840.19543	1259.04541	-994.34625	-642.72260	1459.71338	-991.60419	-596.73462	1285.62231	-904.10083	-837.65228	1359.42725	-1153.95227	-730.99713	1507.38879	-1245.51489	-775.80853	1319.49072	-1273.10339	-792.20599	1182.32520	-1301.11047	-776.32959	1050.02979	-1285.83252	-707.83661	927.86707	-1313.40295	-758.04364	927.58221	-1318.99622	-733.80334	864.03931	-792.80621	-687.22437	1493.10583	-709.44788	-707.75348	1300.41479	-699.41211	-691.92877	1153.35706	-687.56067	-659.45508	1037.08691	-717.24420	-611.39783	912.13928	-678.85645	-653.84857	906.57733	-682.15466	-614.10492	846.02472	-1120.38440	-638.65869	995.41425	-868.23834	-624.86713	972.68146	-1023.79340	-838.72693	1044.28271	-908.35687	-835.20862	1042.51526	-1204.81799	-663.94550	691.68329	-1194.64429	-644.34778	503.51215	-1176.11743	-763.71246	361.78738	-1143.97546	-847.47137	155.98375	-1082.66174	-872.62061	139.67081	-1197.07239	-740.09454	56.98816	-819.28613	-695.16229	661.25763	-879.63446	-694.21942	455.84955	-883.01758	-746.29004	273.04459	-933.69586	-784.28351	87.08011	-990.20612	-825.84039	34.48824	-929.65527	-636.63232	38.09016	-934.99072	-686.36969	1808.00781	-3355.52466	2846.79419	1034.21631 
7	0.060	-1014.56909	-563.72412	1743.07532	-874.96399	-587.52893	1716.22815	-1048.40088	-695.01440	1676.94043	-912.12720	-730.13422	1649.06934	-973.25592	-766.89038	1532.72559	-965.79980	-828.68439	1259.46729	-995.68781	-631.27441	1460.22192	-991.97577	-585.06763	1286.29089	-905.08435	-826.20435	1360.41040	-1155.70215	-719.23517	1507.15540	-1245.72803	-766.24493	1319.08289	-1271.10962	-785.25208	1181.74841	-1297.10620	-773.09784	1048.79602	-1280.47180	-708.05420	924.87921	-1308.13574	-758.16064	925.71204	-1313.01685	-735.95001	861.41724	-794.46173	-676.30237	1494.52209	-710.66180	-694.68512	1301.50623	-700.01508	-676.05292	1154.62427	-688.95630	-641.31177	1039.22607	-719.37671	-589.68701	915.74170	-680.89929	-631.94513	908.85840	-684.74951	-590.03766	849.31525	-1118.90186	-624.85730	996.50500	-867.91833	-614.67957	972.41492	-1026.21753	-826.62805	1045.16223	-910.54163	-824.19037	1043.13171	-1206.83984	-646.72571	694.34790	-1195.83899	-624.03668	505.09991	-1179.14307	-736.87695	356.64105	-1148.24609	-810.03253	146.49333	-1087.49377	-834.96924	128.56888	-1200.19153	-696.55634	54.24887	-820.38477	-689.26080	661.25720	-880.43359	-691.60614	455.57712	-883.45490	-744.62573	273.09897	-933.88190	-783.88989	87.18115	-990.16547	-826.56580	35.17114	-929.90186	-636.36139	37.65717	-936.63831	-674.80829	1808.64844	-3356.89038	2846.19971	1034.09473 
